<svg xmlns="http://www.w3.org/2000/svg" xmlns:xlink="http://www.w3.org/1999/xlink" width="40" zoomAndPan="magnify" viewBox="0 0 30 30.000001" height="40" preserveAspectRatio="xMidYMid meet" version="1.0"><defs><g/><clipPath id="3e293084a9"><rect x="0" width="24" y="0" height="23"/></clipPath></defs><g transform="matrix(1, 0, 0, 1, 3, 3)"><g clip-path="url(#3e293084a9)"><g fill="#3c873a" fill-opacity="1"><g transform="translate(1.117012, 18.081264)"><g><path d="M 9.640625 0 L 1.046875 0 L 1.046875 -13.359375 L 4.1875 -13.359375 L 4.1875 -2.796875 L 9.640625 -2.796875 Z M 9.640625 0 "/></g></g></g><g fill="#3c873a" fill-opacity="1"><g transform="translate(10.892111, 18.081264)"><g><path d="M 4.1875 0 L 1.046875 0 L 1.046875 -13.359375 L 7.359375 -13.359375 C 8.171875 -13.359375 8.894531 -13.222656 9.53125 -12.953125 C 10.164062 -12.691406 10.664062 -12.265625 11.03125 -11.671875 C 11.394531 -11.085938 11.578125 -10.304688 11.578125 -9.328125 C 11.578125 -8.453125 11.394531 -7.703125 11.03125 -7.078125 C 10.664062 -6.453125 10.164062 -5.972656 9.53125 -5.640625 C 8.894531 -5.316406 8.171875 -5.15625 7.359375 -5.15625 L 4.1875 -5.15625 Z M 4.1875 -10.5625 L 4.1875 -7.859375 L 6.921875 -7.859375 C 7.960938 -7.859375 8.484375 -8.316406 8.484375 -9.234375 C 8.484375 -10.117188 7.960938 -10.5625 6.921875 -10.5625 Z M 4.1875 -10.5625 "/></g></g></g></g></g></svg>