<svg xmlns="http://www.w3.org/2000/svg" xmlns:xlink="http://www.w3.org/1999/xlink" width="220" zoomAndPan="magnify" viewBox="0 0 165 44.999999" height="60" preserveAspectRatio="xMidYMid meet" version="1.0"><defs><g/><clipPath id="58eb8465a7"><rect x="0" width="165" y="0" height="42"/></clipPath></defs><g transform="matrix(1, 0, 0, 1, 0.000000000000000028, 1)"><g clip-path="url(#58eb8465a7)"><g fill="#ffffff" fill-opacity="1"><g transform="translate(0.956852, 31.257165)"><g><path d="M 6.8125 -3.859375 L 13.359375 -3.859375 L 13.359375 0 L 1.8125 0 L 1.8125 -20.515625 L 6.8125 -20.515625 Z M 6.8125 -3.859375 "/></g></g></g><g fill="#ffffff" fill-opacity="1"><g transform="translate(14.893676, 31.257165)"><g><path d="M 9.234375 0.234375 C 7.640625 0.234375 6.203125 -0.101562 4.921875 -0.78125 C 3.648438 -1.46875 2.644531 -2.441406 1.90625 -3.703125 C 1.175781 -4.972656 0.8125 -6.457031 0.8125 -8.15625 C 0.8125 -9.832031 1.179688 -11.304688 1.921875 -12.578125 C 2.660156 -13.859375 3.671875 -14.835938 4.953125 -15.515625 C 6.242188 -16.191406 7.691406 -16.53125 9.296875 -16.53125 C 10.890625 -16.53125 12.328125 -16.191406 13.609375 -15.515625 C 14.898438 -14.835938 15.914062 -13.859375 16.65625 -12.578125 C 17.394531 -11.304688 17.765625 -9.832031 17.765625 -8.15625 C 17.765625 -6.476562 17.390625 -5 16.640625 -3.71875 C 15.890625 -2.445312 14.863281 -1.46875 13.5625 -0.78125 C 12.269531 -0.101562 10.828125 0.234375 9.234375 0.234375 Z M 9.234375 -4.09375 C 10.191406 -4.09375 11.003906 -4.441406 11.671875 -5.140625 C 12.347656 -5.835938 12.6875 -6.84375 12.6875 -8.15625 C 12.6875 -9.457031 12.359375 -10.457031 11.703125 -11.15625 C 11.046875 -11.863281 10.242188 -12.21875 9.296875 -12.21875 C 8.316406 -12.21875 7.503906 -11.867188 6.859375 -11.171875 C 6.222656 -10.484375 5.90625 -9.476562 5.90625 -8.15625 C 5.90625 -6.84375 6.21875 -5.835938 6.84375 -5.140625 C 7.476562 -4.441406 8.273438 -4.09375 9.234375 -4.09375 Z M 9.234375 -4.09375 "/></g></g></g><g fill="#ffffff" fill-opacity="1"><g transform="translate(33.505324, 31.257165)"><g><path d="M 8 -16.53125 C 9.15625 -16.53125 10.164062 -16.296875 11.03125 -15.828125 C 11.894531 -15.367188 12.5625 -14.757812 13.03125 -14 L 13.03125 -16.296875 L 18.03125 -16.296875 L 18.03125 -0.03125 C 18.03125 1.46875 17.734375 2.828125 17.140625 4.046875 C 16.546875 5.265625 15.640625 6.234375 14.421875 6.953125 C 13.203125 7.671875 11.6875 8.03125 9.875 8.03125 C 7.457031 8.03125 5.5 7.457031 4 6.3125 C 2.5 5.175781 1.644531 3.632812 1.4375 1.6875 L 6.375 1.6875 C 6.53125 2.3125 6.898438 2.800781 7.484375 3.15625 C 8.066406 3.519531 8.785156 3.703125 9.640625 3.703125 C 10.671875 3.703125 11.492188 3.40625 12.109375 2.8125 C 12.722656 2.21875 13.03125 1.269531 13.03125 -0.03125 L 13.03125 -2.34375 C 12.539062 -1.582031 11.867188 -0.960938 11.015625 -0.484375 C 10.160156 -0.00390625 9.15625 0.234375 8 0.234375 C 6.65625 0.234375 5.4375 -0.109375 4.34375 -0.796875 C 3.257812 -1.492188 2.398438 -2.476562 1.765625 -3.75 C 1.128906 -5.03125 0.8125 -6.507812 0.8125 -8.1875 C 0.8125 -9.851562 1.128906 -11.320312 1.765625 -12.59375 C 2.398438 -13.863281 3.257812 -14.835938 4.34375 -15.515625 C 5.4375 -16.191406 6.65625 -16.53125 8 -16.53125 Z M 13.03125 -8.15625 C 13.03125 -9.394531 12.679688 -10.375 11.984375 -11.09375 C 11.296875 -11.820312 10.457031 -12.1875 9.46875 -12.1875 C 8.476562 -12.1875 7.632812 -11.828125 6.9375 -11.109375 C 6.25 -10.398438 5.90625 -9.425781 5.90625 -8.1875 C 5.90625 -6.9375 6.25 -5.945312 6.9375 -5.21875 C 7.632812 -4.488281 8.476562 -4.125 9.46875 -4.125 C 10.457031 -4.125 11.296875 -4.484375 11.984375 -5.203125 C 12.679688 -5.921875 13.03125 -6.90625 13.03125 -8.15625 Z M 13.03125 -8.15625 "/></g></g></g><g fill="#ffffff" fill-opacity="1"><g transform="translate(53.344115, 31.257165)"><g><path d="M 4.328125 -18 C 3.453125 -18 2.734375 -18.253906 2.171875 -18.765625 C 1.617188 -19.285156 1.34375 -19.925781 1.34375 -20.6875 C 1.34375 -21.46875 1.617188 -22.113281 2.171875 -22.625 C 2.734375 -23.144531 3.453125 -23.40625 4.328125 -23.40625 C 5.179688 -23.40625 5.882812 -23.144531 6.4375 -22.625 C 7 -22.113281 7.28125 -21.46875 7.28125 -20.6875 C 7.28125 -19.925781 7 -19.285156 6.4375 -18.765625 C 5.882812 -18.253906 5.179688 -18 4.328125 -18 Z M 6.8125 -16.296875 L 6.8125 0 L 1.8125 0 L 1.8125 -16.296875 Z M 6.8125 -16.296875 "/></g></g></g><g fill="#ffffff" fill-opacity="1"><g transform="translate(61.963328, 31.257165)"><g><path d="M 0.8125 -8.15625 C 0.8125 -9.84375 1.15625 -11.320312 1.84375 -12.59375 C 2.539062 -13.863281 3.507812 -14.835938 4.75 -15.515625 C 5.988281 -16.191406 7.40625 -16.53125 9 -16.53125 C 11.039062 -16.53125 12.75 -15.992188 14.125 -14.921875 C 15.5 -13.859375 16.398438 -12.351562 16.828125 -10.40625 L 11.515625 -10.40625 C 11.066406 -11.644531 10.195312 -12.265625 8.90625 -12.265625 C 7.988281 -12.265625 7.257812 -11.910156 6.71875 -11.203125 C 6.175781 -10.492188 5.90625 -9.476562 5.90625 -8.15625 C 5.90625 -6.832031 6.175781 -5.8125 6.71875 -5.09375 C 7.257812 -4.382812 7.988281 -4.03125 8.90625 -4.03125 C 10.195312 -4.03125 11.066406 -4.65625 11.515625 -5.90625 L 16.828125 -5.90625 C 16.398438 -3.988281 15.492188 -2.484375 14.109375 -1.390625 C 12.722656 -0.304688 11.019531 0.234375 9 0.234375 C 7.40625 0.234375 5.988281 -0.101562 4.75 -0.78125 C 3.507812 -1.46875 2.539062 -2.441406 1.84375 -3.703125 C 1.15625 -4.972656 0.8125 -6.457031 0.8125 -8.15625 Z M 0.8125 -8.15625 "/></g></g></g><g fill="#ffffff" fill-opacity="1"><g transform="translate(79.640011, 31.257165)"><g><path d="M 17.4375 -13.90625 C 17.4375 -12.71875 17.164062 -11.628906 16.625 -10.640625 C 16.082031 -9.660156 15.242188 -8.867188 14.109375 -8.265625 C 12.984375 -7.660156 11.582031 -7.359375 9.90625 -7.359375 L 6.8125 -7.359375 L 6.8125 0 L 1.8125 0 L 1.8125 -20.515625 L 9.90625 -20.515625 C 11.539062 -20.515625 12.921875 -20.226562 14.046875 -19.65625 C 15.179688 -19.09375 16.03125 -18.316406 16.59375 -17.328125 C 17.15625 -16.335938 17.4375 -15.195312 17.4375 -13.90625 Z M 9.53125 -11.34375 C 10.476562 -11.34375 11.1875 -11.566406 11.65625 -12.015625 C 12.125 -12.460938 12.359375 -13.09375 12.359375 -13.90625 C 12.359375 -14.726562 12.125 -15.363281 11.65625 -15.8125 C 11.1875 -16.257812 10.476562 -16.484375 9.53125 -16.484375 L 6.8125 -16.484375 L 6.8125 -11.34375 Z M 9.53125 -11.34375 "/></g></g></g><g fill="#ffffff" fill-opacity="1"><g transform="translate(97.871833, 31.257165)"><g><path d="M 0.8125 -8.1875 C 0.8125 -9.851562 1.128906 -11.320312 1.765625 -12.59375 C 2.398438 -13.863281 3.257812 -14.835938 4.34375 -15.515625 C 5.4375 -16.191406 6.65625 -16.53125 8 -16.53125 C 9.15625 -16.53125 10.164062 -16.296875 11.03125 -15.828125 C 11.894531 -15.367188 12.5625 -14.757812 13.03125 -14 L 13.03125 -16.296875 L 18.03125 -16.296875 L 18.03125 0 L 13.03125 0 L 13.03125 -2.3125 C 12.539062 -1.550781 11.863281 -0.9375 11 -0.46875 C 10.132812 0 9.128906 0.234375 7.984375 0.234375 C 6.648438 0.234375 5.4375 -0.109375 4.34375 -0.796875 C 3.257812 -1.492188 2.398438 -2.476562 1.765625 -3.75 C 1.128906 -5.03125 0.8125 -6.507812 0.8125 -8.1875 Z M 13.03125 -8.15625 C 13.03125 -9.394531 12.679688 -10.375 11.984375 -11.09375 C 11.296875 -11.820312 10.457031 -12.1875 9.46875 -12.1875 C 8.476562 -12.1875 7.632812 -11.828125 6.9375 -11.109375 C 6.25 -10.398438 5.90625 -9.425781 5.90625 -8.1875 C 5.90625 -6.9375 6.25 -5.945312 6.9375 -5.21875 C 7.632812 -4.488281 8.476562 -4.125 9.46875 -4.125 C 10.457031 -4.125 11.296875 -4.484375 11.984375 -5.203125 C 12.679688 -5.921875 13.03125 -6.90625 13.03125 -8.15625 Z M 13.03125 -8.15625 "/></g></g></g><g fill="#ffffff" fill-opacity="1"><g transform="translate(117.710624, 31.257165)"><g><path d="M 11.75 -16.484375 C 13.65625 -16.484375 15.175781 -15.863281 16.3125 -14.625 C 17.457031 -13.382812 18.03125 -11.6875 18.03125 -9.53125 L 18.03125 0 L 13.0625 0 L 13.0625 -8.859375 C 13.0625 -9.941406 12.773438 -10.785156 12.203125 -11.390625 C 11.640625 -11.992188 10.882812 -12.296875 9.9375 -12.296875 C 8.976562 -12.296875 8.21875 -11.992188 7.65625 -11.390625 C 7.09375 -10.785156 6.8125 -9.941406 6.8125 -8.859375 L 6.8125 0 L 1.8125 0 L 1.8125 -16.296875 L 6.8125 -16.296875 L 6.8125 -14.140625 C 7.3125 -14.859375 7.988281 -15.425781 8.84375 -15.84375 C 9.707031 -16.269531 10.675781 -16.484375 11.75 -16.484375 Z M 11.75 -16.484375 "/></g></g></g><g fill="#ffffff" fill-opacity="1"><g transform="translate(137.403316, 31.257165)"><g><path d="M 17.1875 -8.421875 C 17.1875 -7.953125 17.15625 -7.460938 17.09375 -6.953125 L 5.78125 -6.953125 C 5.863281 -5.941406 6.191406 -5.164062 6.765625 -4.625 C 7.335938 -4.09375 8.039062 -3.828125 8.875 -3.828125 C 10.125 -3.828125 10.992188 -4.351562 11.484375 -5.40625 L 16.796875 -5.40625 C 16.523438 -4.332031 16.035156 -3.367188 15.328125 -2.515625 C 14.617188 -1.660156 13.726562 -0.988281 12.65625 -0.5 C 11.582031 -0.0078125 10.382812 0.234375 9.0625 0.234375 C 7.457031 0.234375 6.03125 -0.101562 4.78125 -0.78125 C 3.539062 -1.46875 2.566406 -2.441406 1.859375 -3.703125 C 1.160156 -4.972656 0.8125 -6.457031 0.8125 -8.15625 C 0.8125 -9.84375 1.15625 -11.320312 1.84375 -12.59375 C 2.539062 -13.863281 3.507812 -14.835938 4.75 -15.515625 C 6 -16.191406 7.4375 -16.53125 9.0625 -16.53125 C 10.632812 -16.53125 12.035156 -16.195312 13.265625 -15.53125 C 14.492188 -14.875 15.453125 -13.929688 16.140625 -12.703125 C 16.835938 -11.484375 17.1875 -10.054688 17.1875 -8.421875 Z M 12.0625 -9.734375 C 12.0625 -10.585938 11.769531 -11.265625 11.1875 -11.765625 C 10.601562 -12.273438 9.875 -12.53125 9 -12.53125 C 8.164062 -12.53125 7.457031 -12.285156 6.875 -11.796875 C 6.300781 -11.316406 5.945312 -10.628906 5.8125 -9.734375 Z M 12.0625 -9.734375 "/></g></g></g><g fill="#ffffff" fill-opacity="1"><g transform="translate(155.401393, 31.257165)"><g><path d="M 6.8125 -21.625 L 6.8125 0 L 1.8125 0 L 1.8125 -21.625 Z M 6.8125 -21.625 "/></g></g></g></g></g></svg>